<svg xmlns="http://www.w3.org/2000/svg" viewBox="0 0 1600 900" role="img" aria-labelledby="diagram-title diagram-desc"><title id="diagram-title">Attribution and ledger UI navigation</title><desc id="diagram-desc">MH-018–MH-021. Creator report drill-down, seller rate simulation, and authorized admin attribution replay.</desc><defs><marker id="arrow" viewBox="0 0 10 10" refX="9" refY="5" markerWidth="8" markerHeight="8" orient="auto-start-reverse"><path d="M 0 0 L 10 5 L 0 10 z" fill="#56616F"/></marker></defs><rect width="1600" height="900" fill="#FFFFFF"/><text x="60" y="58" font-size="34" font-weight="800" fill="#17202A">Attribution and ledger UI navigation</text><text x="60" y="94" font-size="21" fill="#374151">MH-018–MH-021</text><text x="60" y="124" font-size="18" fill="#56616F">Creator report drill-down, seller rate simulation, and authorized admin attribution replay.</text><path data-edge-from="3-04-entry" data-edge-to="mh-018" data-route="forward" d="M 346 246 C 402 246, 402 246, 458 246" fill="none" stroke="#56616F" stroke-width="3" marker-end="url(#arrow)"/>
<path data-edge-from="3-04-storefront" data-edge-to="mh-018" data-route="forward" d="M 346 382 C 402 382, 402 246, 458 246" fill="none" stroke="#56616F" stroke-width="3" marker-end="url(#arrow)"/>
<path data-edge-from="mh-018" data-edge-to="mh-020" data-route="same-column" d="M 744 246 C 800 246, 800 654, 744 654" fill="none" stroke="#56616F" stroke-width="3" marker-end="url(#arrow)"/>
<path data-edge-from="3-04-vendor" data-edge-to="mh-019" data-route="forward" d="M 346 518 C 601 518, 601 246, 856 246" fill="none" stroke="#56616F" stroke-width="3" marker-end="url(#arrow)"/>
<path data-edge-from="3-04-admin" data-edge-to="mh-021" data-route="forward" d="M 346 654 C 601 654, 601 654, 856 654" fill="none" stroke="#56616F" stroke-width="3" marker-end="url(#arrow)"/>
<path data-edge-from="mh-018" data-edge-to="mh-021" data-route="forward" d="M 744 246 C 800 246, 800 654, 856 654" fill="none" stroke="#56616F" stroke-width="3" marker-end="url(#arrow)"/>
<path data-edge-from="mh-019" data-edge-to="3-04-api" data-route="forward" d="M 1142 246 C 1198 246, 1198 246, 1254 246" fill="none" stroke="#56616F" stroke-width="3" marker-end="url(#arrow)"/>
<path data-edge-from="mh-020" data-edge-to="3-04-api" data-route="forward" d="M 744 654 C 999 654, 999 246, 1254 246" fill="none" stroke="#56616F" stroke-width="3" marker-end="url(#arrow)"/>
<path data-edge-from="mh-021" data-edge-to="3-04-api" data-route="forward" d="M 1142 654 C 1198 654, 1198 246, 1254 246" fill="none" stroke="#56616F" stroke-width="3" marker-end="url(#arrow)"/>
<path data-edge-from="3-04-api" data-edge-to="3-04-audit" data-route="same-column" d="M 1254 246 C 1198 246, 1198 654, 1254 654" fill="none" stroke="#56616F" stroke-width="3" stroke-dasharray="3 8" marker-end="url(#arrow)"/>
<path data-edge-from="3-04-api" data-edge-to="3-04-states" data-route="same-column" d="M 1254 246 C 1198 246, 1198 382, 1254 382" fill="none" stroke="#56616F" stroke-width="3" marker-end="url(#arrow)"/>
<path data-edge-from="3-04-states" data-edge-to="3-04-remediation" data-route="same-column" d="M 1254 382 C 1198 382, 1198 518, 1254 518" fill="none" stroke="#56616F" stroke-width="3" marker-end="url(#arrow)"/><text x="203" y="164" text-anchor="middle" font-size="19" font-weight="700" fill="#26303B">Surface boundary</text>
<g data-node-id="3-04-entry"><rect x="60" y="190" width="286" height="112" rx="16" fill="#F1F3F5" stroke="#4B5563" stroke-width="3"/><text x="78" y="225" font-size="22" font-weight="700" fill="#26303B">Entry/auth</text><text x="78" y="258" font-size="18" fill="#26303B"><tspan x="78" dy="0">Authenticated route entry</tspan><tspan x="78" dy="23">with role and account-state…</tspan></text><text x="332" y="212" text-anchor="end" font-size="14" font-weight="700" fill="#26303B">Existing</text></g>
<g data-node-id="3-04-storefront"><rect x="60" y="326" width="286" height="112" rx="16" fill="#EAF2FF" stroke="#2457A7" stroke-width="3"/><text x="78" y="361" font-size="22" font-weight="700" fill="#173A70">Storefront</text><text x="78" y="394" font-size="18" fill="#173A70"><tspan x="78" dy="0">Creator report row and</tspan><tspan x="78" dy="23">ledger navigation.</tspan></text><text x="332" y="348" text-anchor="end" font-size="14" font-weight="700" fill="#173A70">Extend</text></g>
<g data-node-id="3-04-vendor"><rect x="60" y="462" width="286" height="112" rx="16" fill="#FFF0E5" stroke="#B94F00" stroke-width="3"/><text x="78" y="497" font-size="22" font-weight="700" fill="#743200">Vendor Portal</text><text x="78" y="530" font-size="18" fill="#743200"><tspan x="78" dy="0">Seller config opens rate</tspan><tspan x="78" dy="23">simulator and version previ…</tspan></text><text x="332" y="484" text-anchor="end" font-size="14" font-weight="700" fill="#743200">Extend</text></g>
<g data-node-id="3-04-admin"><rect x="60" y="598" width="286" height="112" rx="16" fill="#FFECEC" stroke="#B42318" stroke-width="3"/><text x="78" y="633" font-size="22" font-weight="700" fill="#7A1A14">Medusa Admin</text><text x="78" y="666" font-size="18" fill="#7A1A14"><tspan x="78" dy="0">Admin evidence deep-link for</tspan><tspan x="78" dy="23">authorized replay.</tspan></text><text x="332" y="620" text-anchor="end" font-size="14" font-weight="700" fill="#7A1A14">Extend</text></g>
<text x="601" y="164" text-anchor="middle" font-size="19" font-weight="700" fill="#26303B">Financial detail</text>
<g data-node-id="mh-018"><rect x="458" y="190" width="286" height="112" rx="16" fill="#EAF2FF" stroke="#2457A7" stroke-width="3"/><text x="476" y="225" font-size="22" font-weight="700" fill="#173A70">MH-018 Attribution</text><text x="476" y="258" font-size="18" fill="#173A70"><tspan x="476" dy="0">Candidate, winner, rule</tspan><tspan x="476" dy="23">version, and source evidenc…</tspan></text><text x="730" y="212" text-anchor="end" font-size="14" font-weight="700" fill="#173A70">New</text></g>
<g data-node-id="mh-020"><rect x="458" y="598" width="286" height="112" rx="16" fill="#EAF8EF" stroke="#287A45" stroke-width="3"/><text x="476" y="633" font-size="22" font-weight="700" fill="#18512D">MH-020 Ledger</text><text x="476" y="666" font-size="18" fill="#18512D"><tspan x="476" dy="0">Order-line journal, state</tspan><tspan x="476" dy="23">transition, adjustment, and…</tspan></text><text x="730" y="620" text-anchor="end" font-size="14" font-weight="700" fill="#18512D">New</text></g>
<text x="999" y="164" text-anchor="middle" font-size="19" font-weight="700" fill="#26303B">Authorized tools</text>
<g data-node-id="mh-019"><rect x="856" y="190" width="286" height="112" rx="16" fill="#FFF0E5" stroke="#B94F00" stroke-width="3"/><text x="874" y="225" font-size="22" font-weight="700" fill="#743200">MH-019 Rate simulator</text><text x="874" y="258" font-size="18" fill="#743200"><tspan x="874" dy="0">Seller inputs, effective</tspan><tspan x="874" dy="23">version, preview, and non-b…</tspan></text><text x="1128" y="212" text-anchor="end" font-size="14" font-weight="700" fill="#743200">New</text></g>
<g data-node-id="mh-021"><rect x="856" y="598" width="286" height="112" rx="16" fill="#FFECEC" stroke="#B42318" stroke-width="3"/><text x="874" y="633" font-size="22" font-weight="700" fill="#7A1A14">MH-021 Explorer</text><text x="874" y="666" font-size="18" fill="#7A1A14"><tspan x="874" dy="0">Admin candidate evidence and</tspan><tspan x="874" dy="23">deterministic replay contro…</tspan></text><text x="1128" y="620" text-anchor="end" font-size="14" font-weight="700" fill="#7A1A14">Field-validation gate</text></g>
<text x="1397" y="164" text-anchor="middle" font-size="19" font-weight="700" fill="#26303B">Authoritative outcome</text>
<g data-node-id="3-04-api"><rect x="1254" y="190" width="286" height="112" rx="16" fill="#F1F3F5" stroke="#4B5563" stroke-width="3"/><text x="1272" y="225" font-size="22" font-weight="700" fill="#26303B">BFF/API authoritative result</text><text x="1272" y="258" font-size="18" fill="#26303B"><tspan x="1272" dy="0">Attribution decision, rate</tspan><tspan x="1272" dy="23">version, ledger entries, an…</tspan></text><text x="1526" y="212" text-anchor="end" font-size="14" font-weight="700" fill="#26303B">Extend</text></g>
<g data-node-id="3-04-states"><rect x="1254" y="326" width="286" height="112" rx="16" fill="#FFECEC" stroke="#B42318" stroke-width="3"/><text x="1272" y="361" font-size="22" font-weight="700" fill="#7A1A14">Loading/error/denied</text><text x="1272" y="394" font-size="18" fill="#7A1A14"><tspan x="1272" dy="0">Loading keeps row identity;</tspan><tspan x="1272" dy="23">error offers retry; permiss…</tspan></text></g>
<g data-node-id="3-04-remediation"><rect x="1254" y="462" width="286" height="112" rx="16" fill="#FFECEC" stroke="#B42318" stroke-width="3"/><text x="1272" y="497" font-size="22" font-weight="700" fill="#7A1A14">Remediation / safe exit</text><text x="1272" y="530" font-size="18" fill="#7A1A14"><tspan x="1272" dy="0">Permission denied exits</tspan><tspan x="1272" dy="23">safely to the permitted rep…</tspan></text></g>
<g data-node-id="3-04-audit"><rect x="1254" y="598" width="286" height="112" rx="16" fill="#F1F3F5" stroke="#4B5563" stroke-width="3"/><text x="1272" y="633" font-size="22" font-weight="700" fill="#26303B">Audit / reference</text><text x="1272" y="666" font-size="18" fill="#26303B"><tspan x="1272" dy="0">Decision version, rate</tspan><tspan x="1272" dy="23">snapshot, ledger journal, r…</tspan></text></g><g data-edge-label="true" data-edge-from="3-04-entry" data-edge-to="mh-018"><title>report row</title><rect x="354" y="229" width="96" height="34" rx="10" fill="#FFFFFF" stroke="#697586" stroke-width="2"/><text x="402" y="251" text-anchor="middle" font-size="15" font-weight="700" fill="#26303B"><tspan x="402" dy="0">report row</tspan></text></g>
<g data-edge-label="true" data-edge-from="3-04-storefront" data-edge-to="mh-018"><title>creator report route</title><rect x="354" y="288" width="96" height="52" rx="10" fill="#FFFFFF" stroke="#697586" stroke-width="2"/><text x="402" y="310" text-anchor="middle" font-size="15" font-weight="700" fill="#26303B"><tspan x="402" dy="0">creator</tspan><tspan x="402" dy="18">report rou…</tspan></text></g>
<g data-edge-label="true" data-edge-from="mh-018" data-edge-to="mh-020"><title>ledger detail</title><rect x="752" y="424" width="96" height="52" rx="10" fill="#FFFFFF" stroke="#697586" stroke-width="2"/><text x="800" y="446" text-anchor="middle" font-size="15" font-weight="700" fill="#26303B"><tspan x="800" dy="0">ledger</tspan><tspan x="800" dy="18">detail</tspan></text></g>
<g data-edge-label="true" data-edge-from="3-04-vendor" data-edge-to="mh-019"><title>seller config</title><rect x="354" y="356" width="96" height="52" rx="10" fill="#FFFFFF" stroke="#697586" stroke-width="2"/><text x="402" y="378" text-anchor="middle" font-size="15" font-weight="700" fill="#26303B"><tspan x="402" dy="0">seller</tspan><tspan x="402" dy="18">config</tspan></text></g>
<g data-edge-label="true" data-edge-from="3-04-admin" data-edge-to="mh-021"><title>admin evidence</title><rect x="354" y="628" width="96" height="52" rx="10" fill="#FFFFFF" stroke="#697586" stroke-width="2"/><text x="402" y="650" text-anchor="middle" font-size="15" font-weight="700" fill="#26303B"><tspan x="402" dy="0">admin</tspan><tspan x="402" dy="18">evidence</tspan></text></g>
<g data-edge-label="true" data-edge-from="mh-018" data-edge-to="mh-021"><title>authorized explorer</title><rect x="752" y="424" width="96" height="52" rx="10" fill="#FFFFFF" stroke="#697586" stroke-width="2"/><text x="800" y="446" text-anchor="middle" font-size="15" font-weight="700" fill="#26303B"><tspan x="800" dy="0">authorized</tspan><tspan x="800" dy="18">explorer</tspan></text></g>
<g data-edge-label="true" data-edge-from="mh-019" data-edge-to="3-04-api"><title>simulate version</title><rect x="1150" y="220" width="96" height="52" rx="10" fill="#FFFFFF" stroke="#697586" stroke-width="2"/><text x="1198" y="242" text-anchor="middle" font-size="15" font-weight="700" fill="#26303B"><tspan x="1198" dy="0">simulate</tspan><tspan x="1198" dy="18">version</tspan></text></g>
<g data-edge-label="true" data-edge-from="mh-020" data-edge-to="3-04-api"><title>journal query</title><rect x="752" y="424" width="96" height="52" rx="10" fill="#FFFFFF" stroke="#697586" stroke-width="2"/><text x="800" y="446" text-anchor="middle" font-size="15" font-weight="700" fill="#26303B"><tspan x="800" dy="0">journal</tspan><tspan x="800" dy="18">query</tspan></text></g>
<g data-edge-label="true" data-edge-from="mh-021" data-edge-to="3-04-api"><title>replay</title><rect x="1150" y="433" width="96" height="34" rx="10" fill="#FFFFFF" stroke="#697586" stroke-width="2"/><text x="1198" y="455" text-anchor="middle" font-size="15" font-weight="700" fill="#26303B"><tspan x="1198" dy="0">replay</tspan></text></g>
<g data-edge-label="true" data-edge-from="3-04-api" data-edge-to="3-04-audit"><title>decision evidence</title><rect x="1150" y="424" width="96" height="52" rx="10" fill="#FFFFFF" stroke="#697586" stroke-width="2"/><text x="1198" y="446" text-anchor="middle" font-size="15" font-weight="700" fill="#26303B"><tspan x="1198" dy="0">decision</tspan><tspan x="1198" dy="18">evidence</tspan></text></g>
<g data-edge-label="true" data-edge-from="3-04-api" data-edge-to="3-04-states"><title>loading / error / denied</title><rect x="1150" y="288" width="96" height="52" rx="10" fill="#FFFFFF" stroke="#697586" stroke-width="2"/><text x="1198" y="310" text-anchor="middle" font-size="15" font-weight="700" fill="#26303B"><tspan x="1198" dy="0">loading /</tspan><tspan x="1198" dy="18">error / de…</tspan></text></g>
<g data-edge-label="true" data-edge-from="3-04-states" data-edge-to="3-04-remediation"><title>retry / permitted safe action</title><rect x="1150" y="424" width="96" height="52" rx="10" fill="#FFFFFF" stroke="#697586" stroke-width="2"/><text x="1198" y="446" text-anchor="middle" font-size="15" font-weight="700" fill="#26303B"><tspan x="1198" dy="0">retry /</tspan><tspan x="1198" dy="18">permitted …</tspan></text></g><g transform="translate(60 820)" font-size="16" fill="#26303B"><path d="M 0 12 H 90" stroke="#56616F" stroke-width="3" marker-end="url(#arrow)"/><text x="105" y="18">request / navigation</text><path d="M 345 12 H 435" stroke="#56616F" stroke-width="3" stroke-dasharray="12 8" marker-end="url(#arrow)"/><text x="450" y="18">async / webhook</text><path d="M 680 12 H 770" stroke="#56616F" stroke-width="3" stroke-dasharray="3 8" marker-end="url(#arrow)"/><text x="785" y="18">audit / evidence</text><text x="1120" y="18" font-weight="700">Visual aid — normative SRS text is authoritative</text></g></svg>
