<svg xmlns="http://www.w3.org/2000/svg" viewBox="0 0 1600 900" role="img" aria-labelledby="diagram-title diagram-desc"><title id="diagram-title">Dashboard, offer and referral UI navigation</title><desc id="diagram-desc">MH-006–MH-011. Dashboard discovery, offer assets, invitation and referral branches, plus seller or admin offer management.</desc><defs><marker id="arrow" viewBox="0 0 10 10" refX="9" refY="5" markerWidth="8" markerHeight="8" orient="auto-start-reverse"><path d="M 0 0 L 10 5 L 0 10 z" fill="#56616F"/></marker></defs><rect width="1600" height="900" fill="#FFFFFF"/><text x="60" y="58" font-size="34" font-weight="800" fill="#17202A">Dashboard, offer and referral UI navigation</text><text x="60" y="94" font-size="21" fill="#374151">MH-006–MH-011</text><text x="60" y="124" font-size="18" fill="#56616F">Dashboard discovery, offer assets, invitation and referral branches, plus seller or admin offer management.</text><path data-edge-from="3-02-entry" data-edge-to="mh-006" data-route="forward" d="M 346 246 C 402 246, 402 246, 458 246" fill="none" stroke="#56616F" stroke-width="3" marker-end="url(#arrow)"/>
<path data-edge-from="3-02-storefront" data-edge-to="mh-006" data-route="forward" d="M 346 382 C 402 382, 402 246, 458 246" fill="none" stroke="#56616F" stroke-width="3" marker-end="url(#arrow)"/>
<path data-edge-from="mh-006" data-edge-to="mh-007" data-route="same-column" d="M 744 246 C 800 246, 800 450, 744 450" fill="none" stroke="#56616F" stroke-width="3" marker-end="url(#arrow)"/>
<path data-edge-from="mh-007" data-edge-to="mh-008" data-route="same-column" d="M 744 450 C 800 450, 800 654, 744 654" fill="none" stroke="#56616F" stroke-width="3" marker-end="url(#arrow)"/>
<path data-edge-from="3-02-entry" data-edge-to="mh-009" data-route="forward" d="M 346 246 C 601 246, 601 246, 856 246" fill="none" stroke="#56616F" stroke-width="3" marker-end="url(#arrow)"/>
<path data-edge-from="3-02-entry" data-edge-to="mh-010" data-route="forward" d="M 346 246 C 601 246, 601 450, 856 450" fill="none" stroke="#56616F" stroke-width="3" marker-end="url(#arrow)"/>
<path data-edge-from="3-02-vendor" data-edge-to="mh-011" data-route="forward" d="M 346 518 C 601 518, 601 654, 856 654" fill="none" stroke="#56616F" stroke-width="3" marker-end="url(#arrow)"/>
<path data-edge-from="3-02-admin" data-edge-to="mh-011" data-route="forward" d="M 346 654 C 601 654, 601 654, 856 654" fill="none" stroke="#56616F" stroke-width="3" marker-end="url(#arrow)"/>
<path data-edge-from="mh-008" data-edge-to="3-02-api" data-route="forward" d="M 744 654 C 999 654, 999 246, 1254 246" fill="none" stroke="#56616F" stroke-width="3" marker-end="url(#arrow)"/>
<path data-edge-from="mh-009" data-edge-to="3-02-api" data-route="forward" d="M 1142 246 C 1198 246, 1198 246, 1254 246" fill="none" stroke="#56616F" stroke-width="3" marker-end="url(#arrow)"/>
<path data-edge-from="mh-010" data-edge-to="3-02-api" data-route="forward" d="M 1142 450 C 1198 450, 1198 246, 1254 246" fill="none" stroke="#56616F" stroke-width="3" marker-end="url(#arrow)"/>
<path data-edge-from="mh-011" data-edge-to="3-02-api" data-route="forward" d="M 1142 654 C 1198 654, 1198 246, 1254 246" fill="none" stroke="#56616F" stroke-width="3" marker-end="url(#arrow)"/>
<path data-edge-from="3-02-api" data-edge-to="3-02-audit" data-route="same-column" d="M 1254 246 C 1198 246, 1198 654, 1254 654" fill="none" stroke="#56616F" stroke-width="3" stroke-dasharray="3 8" marker-end="url(#arrow)"/>
<path data-edge-from="3-02-api" data-edge-to="3-02-states" data-route="same-column" d="M 1254 246 C 1198 246, 1198 382, 1254 382" fill="none" stroke="#56616F" stroke-width="3" marker-end="url(#arrow)"/>
<path data-edge-from="3-02-states" data-edge-to="3-02-remediation" data-route="same-column" d="M 1254 382 C 1198 382, 1198 518, 1254 518" fill="none" stroke="#56616F" stroke-width="3" marker-end="url(#arrow)"/><text x="203" y="164" text-anchor="middle" font-size="19" font-weight="700" fill="#26303B">Surface boundary</text>
<g data-node-id="3-02-entry"><rect x="60" y="190" width="286" height="112" rx="16" fill="#F1F3F5" stroke="#4B5563" stroke-width="3"/><text x="78" y="225" font-size="22" font-weight="700" fill="#26303B">Entry/auth</text><text x="78" y="258" font-size="18" fill="#26303B"><tspan x="78" dy="0">Authenticated route entry</tspan><tspan x="78" dy="23">with role and account-state…</tspan></text><text x="332" y="212" text-anchor="end" font-size="14" font-weight="700" fill="#26303B">Existing</text></g>
<g data-node-id="3-02-storefront"><rect x="60" y="326" width="286" height="112" rx="16" fill="#EAF2FF" stroke="#2457A7" stroke-width="3"/><text x="78" y="361" font-size="22" font-weight="700" fill="#173A70">Storefront</text><text x="78" y="394" font-size="18" fill="#173A70"><tspan x="78" dy="0">Creator dashboard,</tspan><tspan x="78" dy="23">marketplace, invitation, an…</tspan></text><text x="332" y="348" text-anchor="end" font-size="14" font-weight="700" fill="#173A70">Extend</text></g>
<g data-node-id="3-02-vendor"><rect x="60" y="462" width="286" height="112" rx="16" fill="#FFF0E5" stroke="#B94F00" stroke-width="3"/><text x="78" y="497" font-size="22" font-weight="700" fill="#743200">Vendor Portal</text><text x="78" y="530" font-size="18" fill="#743200"><tspan x="78" dy="0">Seller offer and commission</tspan><tspan x="78" dy="23">configuration entry.</tspan></text><text x="332" y="484" text-anchor="end" font-size="14" font-weight="700" fill="#743200">Extend</text></g>
<g data-node-id="3-02-admin"><rect x="60" y="598" width="286" height="112" rx="16" fill="#FFECEC" stroke="#B42318" stroke-width="3"/><text x="78" y="633" font-size="22" font-weight="700" fill="#7A1A14">Medusa Admin</text><text x="78" y="666" font-size="18" fill="#7A1A14"><tspan x="78" dy="0">Authorized offer oversight</tspan><tspan x="78" dy="23">entry.</tspan></text><text x="332" y="620" text-anchor="end" font-size="14" font-weight="700" fill="#7A1A14">Extend</text></g>
<text x="601" y="164" text-anchor="middle" font-size="19" font-weight="700" fill="#26303B">Discover &amp; activate</text>
<g data-node-id="mh-006"><rect x="458" y="190" width="286" height="112" rx="16" fill="#EAF2FF" stroke="#2457A7" stroke-width="3"/><text x="476" y="225" font-size="22" font-weight="700" fill="#173A70">MH-006 Dashboard</text><text x="476" y="258" font-size="18" fill="#173A70"><tspan x="476" dy="0">Authoritative clicks,</tspan><tspan x="476" dy="23">orders, earnings, tasks, an…</tspan></text><text x="730" y="212" text-anchor="end" font-size="14" font-weight="700" fill="#173A70">New</text></g>
<g data-node-id="mh-007"><rect x="458" y="394" width="286" height="112" rx="16" fill="#EAF2FF" stroke="#2457A7" stroke-width="3"/><text x="476" y="429" font-size="22" font-weight="700" fill="#173A70">MH-007 Marketplace</text><text x="476" y="462" font-size="18" fill="#173A70"><tspan x="476" dy="0">Eligible offers with</tspan><tspan x="476" dy="23">filters, rates, terms, and …</tspan></text><text x="730" y="416" text-anchor="end" font-size="14" font-weight="700" fill="#173A70">New</text></g>
<g data-node-id="mh-008"><rect x="458" y="598" width="286" height="112" rx="16" fill="#EAF2FF" stroke="#2457A7" stroke-width="3"/><text x="476" y="633" font-size="22" font-weight="700" fill="#173A70">MH-008 Offer detail</text><text x="476" y="666" font-size="18" fill="#173A70"><tspan x="476" dy="0">Current version,</tspan><tspan x="476" dy="23">eligibility, enrollment, an…</tspan></text><text x="730" y="620" text-anchor="end" font-size="14" font-weight="700" fill="#173A70">New</text></g>
<text x="999" y="164" text-anchor="middle" font-size="19" font-weight="700" fill="#26303B">Deep links &amp; management</text>
<g data-node-id="mh-009"><rect x="856" y="190" width="286" height="112" rx="16" fill="#EAF2FF" stroke="#2457A7" stroke-width="3"/><text x="874" y="225" font-size="22" font-weight="700" fill="#173A70">MH-009 Invitation</text><text x="874" y="258" font-size="18" fill="#173A70"><tspan x="874" dy="0">Invitation deep-link with</tspan><tspan x="874" dy="23">status, versioned terms, an…</tspan></text><text x="1128" y="212" text-anchor="end" font-size="14" font-weight="700" fill="#173A70">New</text></g>
<g data-node-id="mh-010"><rect x="856" y="394" width="286" height="112" rx="16" fill="#EAF2FF" stroke="#2457A7" stroke-width="3"/><text x="874" y="429" font-size="22" font-weight="700" fill="#173A70">MH-010 Referral</text><text x="874" y="462" font-size="18" fill="#173A70"><tspan x="874" dy="0">Referral link, invite state,</tspan><tspan x="874" dy="23">eligibility, and earned out…</tspan></text><text x="1128" y="416" text-anchor="end" font-size="14" font-weight="700" fill="#173A70">New</text></g>
<g data-node-id="mh-011"><rect x="856" y="598" width="286" height="112" rx="16" fill="#FFF0E5" stroke="#B94F00" stroke-width="3"/><text x="874" y="633" font-size="22" font-weight="700" fill="#743200">MH-011 Offer manage</text><text x="874" y="666" font-size="18" fill="#743200"><tspan x="874" dy="0">Seller/admin rate version,</tspan><tspan x="874" dy="23">targeting, pause, and audit…</tspan></text><text x="1128" y="620" text-anchor="end" font-size="14" font-weight="700" fill="#743200">New</text></g>
<text x="1397" y="164" text-anchor="middle" font-size="19" font-weight="700" fill="#26303B">Authoritative outcome</text>
<g data-node-id="3-02-api"><rect x="1254" y="190" width="286" height="112" rx="16" fill="#F1F3F5" stroke="#4B5563" stroke-width="3"/><text x="1272" y="225" font-size="22" font-weight="700" fill="#26303B">BFF/API authoritative result</text><text x="1272" y="258" font-size="18" fill="#26303B"><tspan x="1272" dy="0">Eligibility, enrollment,</tspan><tspan x="1272" dy="23">invitation, referral, and o…</tspan></text><text x="1526" y="212" text-anchor="end" font-size="14" font-weight="700" fill="#26303B">Extend</text></g>
<g data-node-id="3-02-states"><rect x="1254" y="326" width="286" height="112" rx="16" fill="#FFECEC" stroke="#B42318" stroke-width="3"/><text x="1272" y="361" font-size="22" font-weight="700" fill="#7A1A14">Loading/error/denied</text><text x="1272" y="394" font-size="18" fill="#7A1A14"><tspan x="1272" dy="0">Loading uses stable</tspan><tspan x="1272" dy="23">skeletons; error retries; d…</tspan></text></g>
<g data-node-id="3-02-remediation"><rect x="1254" y="462" width="286" height="112" rx="16" fill="#FFECEC" stroke="#B42318" stroke-width="3"/><text x="1272" y="497" font-size="22" font-weight="700" fill="#7A1A14">Remediation / safe exit</text><text x="1272" y="530" font-size="18" fill="#7A1A14"><tspan x="1272" dy="0">A stale offer forces version</tspan><tspan x="1272" dy="23">refresh before mutation; sa…</tspan></text></g>
<g data-node-id="3-02-audit"><rect x="1254" y="598" width="286" height="112" rx="16" fill="#F1F3F5" stroke="#4B5563" stroke-width="3"/><text x="1272" y="633" font-size="22" font-weight="700" fill="#26303B">Audit / reference</text><text x="1272" y="666" font-size="18" fill="#26303B"><tspan x="1272" dy="0">Offer version, eligibility</tspan><tspan x="1272" dy="23">decision, freshness time, a…</tspan></text></g><g data-edge-label="true" data-edge-from="3-02-entry" data-edge-to="mh-006"><title>entry/auth</title><rect x="354" y="229" width="96" height="34" rx="10" fill="#FFFFFF" stroke="#697586" stroke-width="2"/><text x="402" y="251" text-anchor="middle" font-size="15" font-weight="700" fill="#26303B"><tspan x="402" dy="0">entry/auth</tspan></text></g>
<g data-edge-label="true" data-edge-from="3-02-storefront" data-edge-to="mh-006"><title>creator route</title><rect x="354" y="288" width="96" height="52" rx="10" fill="#FFFFFF" stroke="#697586" stroke-width="2"/><text x="402" y="310" text-anchor="middle" font-size="15" font-weight="700" fill="#26303B"><tspan x="402" dy="0">creator</tspan><tspan x="402" dy="18">route</tspan></text></g>
<g data-edge-label="true" data-edge-from="mh-006" data-edge-to="mh-007"><title>browse offers</title><rect x="752" y="322" width="96" height="52" rx="10" fill="#FFFFFF" stroke="#697586" stroke-width="2"/><text x="800" y="344" text-anchor="middle" font-size="15" font-weight="700" fill="#26303B"><tspan x="800" dy="0">browse</tspan><tspan x="800" dy="18">offers</tspan></text></g>
<g data-edge-label="true" data-edge-from="mh-007" data-edge-to="mh-008"><title>select offer</title><rect x="752" y="526" width="96" height="52" rx="10" fill="#FFFFFF" stroke="#697586" stroke-width="2"/><text x="800" y="548" text-anchor="middle" font-size="15" font-weight="700" fill="#26303B"><tspan x="800" dy="0">select</tspan><tspan x="800" dy="18">offer</tspan></text></g>
<g data-edge-label="true" data-edge-from="3-02-entry" data-edge-to="mh-009"><title>invitation deep-link</title><rect x="354" y="220" width="96" height="52" rx="10" fill="#FFFFFF" stroke="#697586" stroke-width="2"/><text x="402" y="242" text-anchor="middle" font-size="15" font-weight="700" fill="#26303B"><tspan x="402" dy="0">invitation</tspan><tspan x="402" dy="18">deep-link</tspan></text></g>
<g data-edge-label="true" data-edge-from="3-02-entry" data-edge-to="mh-010"><title>referral</title><rect x="354" y="331" width="96" height="34" rx="10" fill="#FFFFFF" stroke="#697586" stroke-width="2"/><text x="402" y="353" text-anchor="middle" font-size="15" font-weight="700" fill="#26303B"><tspan x="402" dy="0">referral</tspan></text></g>
<g data-edge-label="true" data-edge-from="3-02-vendor" data-edge-to="mh-011"><title>seller management</title><rect x="354" y="560" width="96" height="52" rx="10" fill="#FFFFFF" stroke="#697586" stroke-width="2"/><text x="402" y="582" text-anchor="middle" font-size="15" font-weight="700" fill="#26303B"><tspan x="402" dy="0">seller</tspan><tspan x="402" dy="18">management</tspan></text></g>
<g data-edge-label="true" data-edge-from="3-02-admin" data-edge-to="mh-011"><title>admin oversight</title><rect x="354" y="628" width="96" height="52" rx="10" fill="#FFFFFF" stroke="#697586" stroke-width="2"/><text x="402" y="650" text-anchor="middle" font-size="15" font-weight="700" fill="#26303B"><tspan x="402" dy="0">admin</tspan><tspan x="402" dy="18">oversight</tspan></text></g>
<g data-edge-label="true" data-edge-from="mh-008" data-edge-to="3-02-api"><title>enroll / create asset</title><rect x="752" y="424" width="96" height="52" rx="10" fill="#FFFFFF" stroke="#697586" stroke-width="2"/><text x="800" y="446" text-anchor="middle" font-size="15" font-weight="700" fill="#26303B"><tspan x="800" dy="0">enroll /</tspan><tspan x="800" dy="18">create ass…</tspan></text></g>
<g data-edge-label="true" data-edge-from="mh-009" data-edge-to="3-02-api"><title>accept / decline</title><rect x="1150" y="220" width="96" height="52" rx="10" fill="#FFFFFF" stroke="#697586" stroke-width="2"/><text x="1198" y="242" text-anchor="middle" font-size="15" font-weight="700" fill="#26303B"><tspan x="1198" dy="0">accept /</tspan><tspan x="1198" dy="18">decline</tspan></text></g>
<g data-edge-label="true" data-edge-from="mh-010" data-edge-to="3-02-api"><title>referral status</title><rect x="1150" y="322" width="96" height="52" rx="10" fill="#FFFFFF" stroke="#697586" stroke-width="2"/><text x="1198" y="344" text-anchor="middle" font-size="15" font-weight="700" fill="#26303B"><tspan x="1198" dy="0">referral</tspan><tspan x="1198" dy="18">status</tspan></text></g>
<g data-edge-label="true" data-edge-from="mh-011" data-edge-to="3-02-api"><title>publish version</title><rect x="1150" y="424" width="96" height="52" rx="10" fill="#FFFFFF" stroke="#697586" stroke-width="2"/><text x="1198" y="446" text-anchor="middle" font-size="15" font-weight="700" fill="#26303B"><tspan x="1198" dy="0">publish</tspan><tspan x="1198" dy="18">version</tspan></text></g>
<g data-edge-label="true" data-edge-from="3-02-api" data-edge-to="3-02-audit"><title>freshness and version</title><rect x="1150" y="424" width="96" height="52" rx="10" fill="#FFFFFF" stroke="#697586" stroke-width="2"/><text x="1198" y="446" text-anchor="middle" font-size="15" font-weight="700" fill="#26303B"><tspan x="1198" dy="0">freshness</tspan><tspan x="1198" dy="18">and version</tspan></text></g>
<g data-edge-label="true" data-edge-from="3-02-api" data-edge-to="3-02-states"><title>loading / error / denied</title><rect x="1150" y="288" width="96" height="52" rx="10" fill="#FFFFFF" stroke="#697586" stroke-width="2"/><text x="1198" y="310" text-anchor="middle" font-size="15" font-weight="700" fill="#26303B"><tspan x="1198" dy="0">loading /</tspan><tspan x="1198" dy="18">error / de…</tspan></text></g>
<g data-edge-label="true" data-edge-from="3-02-states" data-edge-to="3-02-remediation"><title>retry / permitted safe action</title><rect x="1150" y="424" width="96" height="52" rx="10" fill="#FFFFFF" stroke="#697586" stroke-width="2"/><text x="1198" y="446" text-anchor="middle" font-size="15" font-weight="700" fill="#26303B"><tspan x="1198" dy="0">retry /</tspan><tspan x="1198" dy="18">permitted …</tspan></text></g><g transform="translate(60 820)" font-size="16" fill="#26303B"><path d="M 0 12 H 90" stroke="#56616F" stroke-width="3" marker-end="url(#arrow)"/><text x="105" y="18">request / navigation</text><path d="M 345 12 H 435" stroke="#56616F" stroke-width="3" stroke-dasharray="12 8" marker-end="url(#arrow)"/><text x="450" y="18">async / webhook</text><path d="M 680 12 H 770" stroke="#56616F" stroke-width="3" stroke-dasharray="3 8" marker-end="url(#arrow)"/><text x="785" y="18">audit / evidence</text><text x="1120" y="18" font-weight="700">Visual aid — normative SRS text is authoritative</text></g></svg>
