<svg xmlns="http://www.w3.org/2000/svg" viewBox="0 0 1600 900" role="img" aria-labelledby="diagram-title diagram-desc"><title id="diagram-title">Fraud, enforcement and appeal UI navigation</title><desc id="diagram-desc">MH-051–MH-055. User fraud report and appeal plus admin queue, evidence graph, enforcement, and policy recall.</desc><defs><marker id="arrow" viewBox="0 0 10 10" refX="9" refY="5" markerWidth="8" markerHeight="8" orient="auto-start-reverse"><path d="M 0 0 L 10 5 L 0 10 z" fill="#56616F"/></marker></defs><rect width="1600" height="900" fill="#FFFFFF"/><text x="60" y="58" font-size="34" font-weight="800" fill="#17202A">Fraud, enforcement and appeal UI navigation</text><text x="60" y="94" font-size="21" fill="#374151">MH-051–MH-055</text><text x="60" y="124" font-size="18" fill="#56616F">User fraud report and appeal plus admin queue, evidence graph, enforcement, and policy recall.</text><path data-edge-from="3-11-entry" data-edge-to="mh-051" data-route="forward" d="M 346 246 C 402 246, 402 246, 458 246" fill="none" stroke="#56616F" stroke-width="3" marker-end="url(#arrow)"/>
<path data-edge-from="3-11-storefront" data-edge-to="mh-051" data-route="forward" d="M 346 450 C 402 450, 402 246, 458 246" fill="none" stroke="#56616F" stroke-width="3" marker-end="url(#arrow)"/>
<path data-edge-from="mh-051" data-edge-to="mh-052" data-route="same-column" d="M 744 246 C 800 246, 800 450, 744 450" fill="none" stroke="#56616F" stroke-width="3" marker-end="url(#arrow)"/>
<path data-edge-from="mh-052" data-edge-to="mh-053" data-route="same-column" d="M 744 450 C 800 450, 800 654, 744 654" fill="none" stroke="#56616F" stroke-width="3" marker-end="url(#arrow)"/>
<path data-edge-from="mh-053" data-edge-to="mh-054" data-route="forward" d="M 744 654 C 800 654, 800 246, 856 246" fill="none" stroke="#56616F" stroke-width="3" marker-end="url(#arrow)"/>
<path data-edge-from="3-11-admin" data-edge-to="mh-055" data-route="forward" d="M 346 654 C 601 654, 601 654, 856 654" fill="none" stroke="#56616F" stroke-width="3" marker-end="url(#arrow)"/>
<path data-edge-from="mh-053" data-edge-to="3-11-api" data-route="forward" d="M 744 654 C 999 654, 999 246, 1254 246" fill="none" stroke="#56616F" stroke-width="3" marker-end="url(#arrow)"/>
<path data-edge-from="mh-054" data-edge-to="3-11-api" data-route="forward" d="M 1142 246 C 1198 246, 1198 246, 1254 246" fill="none" stroke="#56616F" stroke-width="3" marker-end="url(#arrow)"/>
<path data-edge-from="mh-055" data-edge-to="3-11-api" data-route="forward" d="M 1142 654 C 1198 654, 1198 246, 1254 246" fill="none" stroke="#56616F" stroke-width="3" marker-end="url(#arrow)"/>
<path data-edge-from="3-11-api" data-edge-to="3-11-audit" data-route="same-column" d="M 1254 246 C 1198 246, 1198 654, 1254 654" fill="none" stroke="#56616F" stroke-width="3" stroke-dasharray="3 8" marker-end="url(#arrow)"/>
<path data-edge-from="3-11-api" data-edge-to="3-11-states" data-route="same-column" d="M 1254 246 C 1198 246, 1198 382, 1254 382" fill="none" stroke="#56616F" stroke-width="3" marker-end="url(#arrow)"/>
<path data-edge-from="3-11-states" data-edge-to="3-11-remediation" data-route="same-column" d="M 1254 382 C 1198 382, 1198 518, 1254 518" fill="none" stroke="#56616F" stroke-width="3" marker-end="url(#arrow)"/><text x="203" y="164" text-anchor="middle" font-size="19" font-weight="700" fill="#26303B">Surface boundary</text>
<g data-node-id="3-11-entry"><rect x="60" y="190" width="286" height="112" rx="16" fill="#F1F3F5" stroke="#4B5563" stroke-width="3"/><text x="78" y="225" font-size="22" font-weight="700" fill="#26303B">Entry/auth</text><text x="78" y="258" font-size="18" fill="#26303B"><tspan x="78" dy="0">Authenticated route entry</tspan><tspan x="78" dy="23">with role and account-state…</tspan></text><text x="332" y="212" text-anchor="end" font-size="14" font-weight="700" fill="#26303B">Existing</text></g>
<g data-node-id="3-11-storefront"><rect x="60" y="394" width="286" height="112" rx="16" fill="#EAF2FF" stroke="#2457A7" stroke-width="3"/><text x="78" y="429" font-size="22" font-weight="700" fill="#173A70">Storefront</text><text x="78" y="462" font-size="18" fill="#173A70"><tspan x="78" dy="0">User report, enforcement</tspan><tspan x="78" dy="23">notice, and appeal routes.</tspan></text><text x="332" y="416" text-anchor="end" font-size="14" font-weight="700" fill="#173A70">Extend</text></g>
<g data-node-id="3-11-admin"><rect x="60" y="598" width="286" height="112" rx="16" fill="#FFECEC" stroke="#B42318" stroke-width="3"/><text x="78" y="633" font-size="22" font-weight="700" fill="#7A1A14">Medusa Admin</text><text x="78" y="666" font-size="18" fill="#7A1A14"><tspan x="78" dy="0">Risk queue, case graph,</tspan><tspan x="78" dy="23">destructive action, and rec…</tspan></text><text x="332" y="620" text-anchor="end" font-size="14" font-weight="700" fill="#7A1A14">Extend</text></g>
<text x="601" y="164" text-anchor="middle" font-size="19" font-weight="700" fill="#26303B">Report &amp; investigate</text>
<g data-node-id="mh-051"><rect x="458" y="190" width="286" height="112" rx="16" fill="#EAF2FF" stroke="#2457A7" stroke-width="3"/><text x="476" y="225" font-size="22" font-weight="700" fill="#173A70">MH-051 Fraud report</text><text x="476" y="258" font-size="18" fill="#173A70"><tspan x="476" dy="0">Category, entity reference,</tspan><tspan x="476" dy="23">evidence, disclosure, and r…</tspan></text><text x="730" y="212" text-anchor="end" font-size="14" font-weight="700" fill="#173A70">New</text></g>
<g data-node-id="mh-052"><rect x="458" y="394" width="286" height="112" rx="16" fill="#FFECEC" stroke="#B42318" stroke-width="3"/><text x="476" y="429" font-size="22" font-weight="700" fill="#7A1A14">MH-052 Risk queue</text><text x="476" y="462" font-size="18" fill="#7A1A14"><tspan x="476" dy="0">Priority, status, assignee,</tspan><tspan x="476" dy="23">policy version, and safe fi…</tspan></text><text x="730" y="416" text-anchor="end" font-size="14" font-weight="700" fill="#7A1A14">New</text></g>
<g data-node-id="mh-053"><rect x="458" y="598" width="286" height="112" rx="16" fill="#FFECEC" stroke="#B42318" stroke-width="3"/><text x="476" y="633" font-size="22" font-weight="700" fill="#7A1A14">MH-053 Case graph</text><text x="476" y="666" font-size="18" fill="#7A1A14"><tspan x="476" dy="0">Authorized evidence graph,</tspan><tspan x="476" dy="23">decision, enforcement, and …</tspan></text><text x="730" y="620" text-anchor="end" font-size="14" font-weight="700" fill="#7A1A14">Field-validation gate</text></g>
<text x="999" y="164" text-anchor="middle" font-size="19" font-weight="700" fill="#26303B">Appeal &amp; recall</text>
<g data-node-id="mh-054"><rect x="856" y="190" width="286" height="112" rx="16" fill="#EAF2FF" stroke="#2457A7" stroke-width="3"/><text x="874" y="225" font-size="22" font-weight="700" fill="#173A70">MH-054 Appeal</text><text x="874" y="258" font-size="18" fill="#173A70"><tspan x="874" dy="0">Enforcement reference,</tspan><tspan x="874" dy="23">appeal evidence, status, an…</tspan></text><text x="1128" y="212" text-anchor="end" font-size="14" font-weight="700" fill="#173A70">New</text></g>
<g data-node-id="mh-055"><rect x="856" y="598" width="286" height="112" rx="16" fill="#FFECEC" stroke="#B42318" stroke-width="3"/><text x="874" y="633" font-size="22" font-weight="700" fill="#7A1A14">MH-055 Recall</text><text x="874" y="666" font-size="18" fill="#7A1A14"><tspan x="874" dy="0">Policy operator scope,</tspan><tspan x="874" dy="23">affected assets, confirm, a…</tspan></text><text x="1128" y="620" text-anchor="end" font-size="14" font-weight="700" fill="#7A1A14">New</text></g>
<text x="1397" y="164" text-anchor="middle" font-size="19" font-weight="700" fill="#26303B">Authoritative outcome</text>
<g data-node-id="3-11-api"><rect x="1254" y="190" width="286" height="112" rx="16" fill="#F1F3F5" stroke="#4B5563" stroke-width="3"/><text x="1272" y="225" font-size="22" font-weight="700" fill="#26303B">BFF/API authoritative result</text><text x="1272" y="258" font-size="18" fill="#26303B"><tspan x="1272" dy="0">Report, case, policy,</tspan><tspan x="1272" dy="23">enforcement, appeal, and re…</tspan></text><text x="1526" y="212" text-anchor="end" font-size="14" font-weight="700" fill="#26303B">Extend</text></g>
<g data-node-id="3-11-states"><rect x="1254" y="326" width="286" height="112" rx="16" fill="#FFECEC" stroke="#B42318" stroke-width="3"/><text x="1272" y="361" font-size="22" font-weight="700" fill="#7A1A14">Loading/error/denied</text><text x="1272" y="394" font-size="18" fill="#7A1A14"><tspan x="1272" dy="0">Loading preserves case</tspan><tspan x="1272" dy="23">identity; error retries; de…</tspan></text></g>
<g data-node-id="3-11-remediation"><rect x="1254" y="462" width="286" height="112" rx="16" fill="#FFECEC" stroke="#B42318" stroke-width="3"/><text x="1272" y="497" font-size="22" font-weight="700" fill="#7A1A14">Remediation / safe exit</text><text x="1272" y="530" font-size="18" fill="#7A1A14"><tspan x="1272" dy="0">All destructive actions</tspan><tspan x="1272" dy="23">confirm and return referenc…</tspan></text></g>
<g data-node-id="3-11-audit"><rect x="1254" y="598" width="286" height="112" rx="16" fill="#F1F3F5" stroke="#4B5563" stroke-width="3"/><text x="1272" y="633" font-size="22" font-weight="700" fill="#26303B">Audit / reference</text><text x="1272" y="666" font-size="18" fill="#26303B"><tspan x="1272" dy="0">Reporter receipt, evidence</tspan><tspan x="1272" dy="23">version, decision, actor, a…</tspan></text></g><g data-edge-label="true" data-edge-from="3-11-entry" data-edge-to="mh-051"><title>entry/auth</title><rect x="354" y="229" width="96" height="34" rx="10" fill="#FFFFFF" stroke="#697586" stroke-width="2"/><text x="402" y="251" text-anchor="middle" font-size="15" font-weight="700" fill="#26303B"><tspan x="402" dy="0">entry/auth</tspan></text></g>
<g data-edge-label="true" data-edge-from="3-11-storefront" data-edge-to="mh-051"><title>user report route</title><rect x="354" y="322" width="96" height="52" rx="10" fill="#FFFFFF" stroke="#697586" stroke-width="2"/><text x="402" y="344" text-anchor="middle" font-size="15" font-weight="700" fill="#26303B"><tspan x="402" dy="0">user report</tspan><tspan x="402" dy="18">route</tspan></text></g>
<g data-edge-label="true" data-edge-from="mh-051" data-edge-to="mh-052"><title>admin queue</title><rect x="752" y="331" width="96" height="34" rx="10" fill="#FFFFFF" stroke="#697586" stroke-width="2"/><text x="800" y="353" text-anchor="middle" font-size="15" font-weight="700" fill="#26303B"><tspan x="800" dy="0">admin queue</tspan></text></g>
<g data-edge-label="true" data-edge-from="mh-052" data-edge-to="mh-053"><title>open case graph</title><rect x="752" y="526" width="96" height="52" rx="10" fill="#FFFFFF" stroke="#697586" stroke-width="2"/><text x="800" y="548" text-anchor="middle" font-size="15" font-weight="700" fill="#26303B"><tspan x="800" dy="0">open case</tspan><tspan x="800" dy="18">graph</tspan></text></g>
<g data-edge-label="true" data-edge-from="mh-053" data-edge-to="mh-054"><title>enforcement → user appeal</title><rect x="752" y="424" width="96" height="52" rx="10" fill="#FFFFFF" stroke="#697586" stroke-width="2"/><text x="800" y="446" text-anchor="middle" font-size="15" font-weight="700" fill="#26303B"><tspan x="800" dy="0">enforcement</tspan><tspan x="800" dy="18">→ user app…</tspan></text></g>
<g data-edge-label="true" data-edge-from="3-11-admin" data-edge-to="mh-055"><title>policy operator</title><rect x="354" y="628" width="96" height="52" rx="10" fill="#FFFFFF" stroke="#697586" stroke-width="2"/><text x="402" y="650" text-anchor="middle" font-size="15" font-weight="700" fill="#26303B"><tspan x="402" dy="0">policy</tspan><tspan x="402" dy="18">operator</tspan></text></g>
<g data-edge-label="true" data-edge-from="mh-053" data-edge-to="3-11-api"><title>confirm enforcement</title><rect x="752" y="424" width="96" height="52" rx="10" fill="#FFFFFF" stroke="#697586" stroke-width="2"/><text x="800" y="446" text-anchor="middle" font-size="15" font-weight="700" fill="#26303B"><tspan x="800" dy="0">confirm</tspan><tspan x="800" dy="18">enforcement</tspan></text></g>
<g data-edge-label="true" data-edge-from="mh-054" data-edge-to="3-11-api"><title>appeal</title><rect x="1150" y="229" width="96" height="34" rx="10" fill="#FFFFFF" stroke="#697586" stroke-width="2"/><text x="1198" y="251" text-anchor="middle" font-size="15" font-weight="700" fill="#26303B"><tspan x="1198" dy="0">appeal</tspan></text></g>
<g data-edge-label="true" data-edge-from="mh-055" data-edge-to="3-11-api"><title>confirm recall</title><rect x="1150" y="424" width="96" height="52" rx="10" fill="#FFFFFF" stroke="#697586" stroke-width="2"/><text x="1198" y="446" text-anchor="middle" font-size="15" font-weight="700" fill="#26303B"><tspan x="1198" dy="0">confirm</tspan><tspan x="1198" dy="18">recall</tspan></text></g>
<g data-edge-label="true" data-edge-from="3-11-api" data-edge-to="3-11-audit"><title>preserved evidence</title><rect x="1150" y="424" width="96" height="52" rx="10" fill="#FFFFFF" stroke="#697586" stroke-width="2"/><text x="1198" y="446" text-anchor="middle" font-size="15" font-weight="700" fill="#26303B"><tspan x="1198" dy="0">preserved</tspan><tspan x="1198" dy="18">evidence</tspan></text></g>
<g data-edge-label="true" data-edge-from="3-11-api" data-edge-to="3-11-states"><title>loading / error / denied</title><rect x="1150" y="288" width="96" height="52" rx="10" fill="#FFFFFF" stroke="#697586" stroke-width="2"/><text x="1198" y="310" text-anchor="middle" font-size="15" font-weight="700" fill="#26303B"><tspan x="1198" dy="0">loading /</tspan><tspan x="1198" dy="18">error / de…</tspan></text></g>
<g data-edge-label="true" data-edge-from="3-11-states" data-edge-to="3-11-remediation"><title>retry / permitted safe action</title><rect x="1150" y="424" width="96" height="52" rx="10" fill="#FFFFFF" stroke="#697586" stroke-width="2"/><text x="1198" y="446" text-anchor="middle" font-size="15" font-weight="700" fill="#26303B"><tspan x="1198" dy="0">retry /</tspan><tspan x="1198" dy="18">permitted …</tspan></text></g><g transform="translate(60 820)" font-size="16" fill="#26303B"><path d="M 0 12 H 90" stroke="#56616F" stroke-width="3" marker-end="url(#arrow)"/><text x="105" y="18">request / navigation</text><path d="M 345 12 H 435" stroke="#56616F" stroke-width="3" stroke-dasharray="12 8" marker-end="url(#arrow)"/><text x="450" y="18">async / webhook</text><path d="M 680 12 H 770" stroke="#56616F" stroke-width="3" stroke-dasharray="3 8" marker-end="url(#arrow)"/><text x="785" y="18">audit / evidence</text><text x="1120" y="18" font-weight="700">Visual aid — normative SRS text is authoritative</text></g></svg>
